<?xml version="1.0" encoding="UTF-8"?>
<svg id="_Слой_2" data-name="Слой 2" xmlns="http://www.w3.org/2000/svg" viewBox="0 0 32.8 32">
  <defs>
    <style>
      .cls-1 {
        fill: #ea5061;
        stroke-width: 0px;
      }
    </style>
  </defs>
  <g id="_Слой_1-2">
    <g>
      <polygon class="cls-1" points="19.55 9.05 18.96 8.01 18.7 8.16 19.18 9.6 19.44 9.45 19.55 9.05"/>
      <path class="cls-1" d="m24.11,24.33l1.63.45c-.78-.59-1.37-.83-1.78-.71l.15.26Z"/>
      <path class="cls-1" d="m19.33,22.58l-2.77-1.86c-.61.35-.37,1.58.73,3.71,1.1,1.67,1.61,2.77,1.54,3.31-.27.71-.12,1.17.45,1.4l.29.52-.78.44c-.35.2-.72-.05-1.11-.74l-.26.15c.39.69.22,1.14-.54,1.34l-2.01-.88-1.04-2.54-.59-1.04-2.57-8.16.26-.15-.59-1.04.26-.15.59,1.04-.26.15.59,1.04.26-.15-1.8-6.19c-.35.2-.32.64.07,1.33l-.26.15.44.78.33,1.19-.26.15-.44-.78-.33-1.19.26-.15-.29-.52-1.56.89-.15-.26c-.2-.35.18-.9,1.12-1.67l-.15-.26-.52.3-1.26,1.4-.26.15c-.2-.35.05-.72.74-1.11l-.15-.26c-.69.39-1.19.33-1.48-.19l3.35-5,3.12-1.77c4.03-1.38,6.73-.86,8.11,1.58l.89,1.56-.53,5.11.26-.15,1.27-3.81-.44-.78.52-.29.18.93-.26.15.29.52c.24,2.48-.15,4.42-1.16,5.82l-1.26,1.4.59,1.04c.38-.21,3.48,1,9.29,3.66.37-.05.78,0,1.23.1.97-2.06,1.52-4.35,1.52-6.78C32.8,7.16,25.64,0,16.8,0S.8,7.16.8,16c0,3.93,1.43,7.52,3.78,10.31l-.05-.05c-.86,2.65-4.52,4.86-4.52,4.86,0,0,4.66,1.14,8.22-1.61l-.1-.09c2.5,1.62,5.47,2.58,8.68,2.58,4.82,0,9.13-2.14,12.07-5.51-3.86-.89-7.05-2.19-9.53-3.91Z"/>
      <polygon class="cls-1" points="26.44 25.41 27.92 25.6 27.78 25.34 26.29 25.15 26.44 25.41"/>
      <rect class="cls-1" x="12.01" y="20.55" width=".3" height="1.2" transform="translate(-8.86 8.77) rotate(-29.61)"/>
      <path class="cls-1" d="m18.03,8.19l-.3-.52-1.48-.19c.79.59,1.38.82,1.78.71Z"/>
      <path class="cls-1" d="m12.65,10.22l2.1,6.71.26-.15c1.98-2.85,3.1-5.32,3.35-7.4l-.29-.52c-.34-.59-1.72-.61-4.15-.05l-1.26,1.41Z"/>
      <polygon class="cls-1" points="18.69 12.97 18.95 12.83 19.36 10.53 19.22 10.27 18.96 10.42 18.69 12.97"/>
    </g>
  </g>
</svg>